# xmcd
#
# Track frame offsets: 
#        182
#        14030
#        28547
#        47045
#        63285
#        75572
#        90437
#        105175
#        122577
#        136130
#        148015
#        159522
#        172845
#        186297
#        198087
#        213355
#        227935
#        240205
#
# Disc length: 3381 seconds
#
# Revision: 1
# Processed by: cddbd v1.5.2PL0 Copyright (c) Steve Scherf et al.
# Submitted via: ExactAudioCopyFreeDBPlugin 1.0
#
DISCID=dd0d3312
DTITLE=Chet Atkins - The Collection
DYEAR=1993
DGENRE=Country
TTITLE0=On The Road Again
TTITLE1=Tenderly
TTITLE2=Orange Blossom Special
TTITLE3=Rodrigo Concerto
TTITLE4=Take Five
TTITLE5=Caravan
TTITLE6=Vincent
TTITLE7=Mostly Mozart
TTITLE8=Storms Never Last
TTITLE9=Limehouse Blues
TTITLE10=Over the Waves
TTITLE11=It Don't Mean a Thing (If It Ain't Got That Swing)
TTITLE12=Brandenburg
TTITLE13=Struttin'
TTITLE14=I'll See You In My Dreams
TTITLE15=Heart Of Glass
TTITLE16=Medley: Black And White - Ragtime Annie
TTITLE17=Hot Toddy
EXTD=1993 BMG Music
EXTT0=
EXTT1=
EXTT2=
EXTT3=
EXTT4=
EXTT5=
EXTT6=
EXTT7=
EXTT8=
EXTT9=
EXTT10=
EXTT11=
EXTT12=
EXTT13=
EXTT14=
EXTT15=
EXTT16=
EXTT17=
PLAYORDER=
